<?xml version="1.0" encoding="utf-8"?>
<!-- Generator: Adobe Illustrator 16.0.0, SVG Export Plug-In . SVG Version: 6.00 Build 0)  -->
<!DOCTYPE svg PUBLIC "-//W3C//DTD SVG 1.1//EN" "http://www.w3.org/Graphics/SVG/1.1/DTD/svg11.dtd">
<svg version="1.1" id="Layer_1" xmlns="http://www.w3.org/2000/svg" xmlns:xlink="http://www.w3.org/1999/xlink" x="0px" y="0px"
	 width="20px" height="29.999px" viewBox="4 0 20 29.999" enable-background="new 4 0 20 29.999" xml:space="preserve">
<g id="Layer_1_1_">
</g>
<g id="lock_x5F_fill">
	<path fill="#4E4E50" d="M14,0C8.492,0,4.004,4.204,4.004,9.375v1.875L4,15.585l-0.042,9.531c0,3.282,0.583,4.375,2.042,4.883
		h15.875C24.206,29.102,24,27.476,24,24.374v-15C24,4.204,19.512,0,14,0z M13.979,21.626c-1.101,0-1.996-0.837-1.996-1.874
		c0-1.036,0.896-1.875,1.996-1.875c1.105,0,2,0.839,2,1.875C15.979,20.789,15.085,21.626,13.979,21.626z M20,11.25H8.004V9.375
		c0-3.102,2.691-5.625,5.996-5.625c3.309,0,6,2.522,6,5.625V11.25z"/>
</g>
</svg>
